<svg width="84" height="28" viewBox="0 0 84 28" fill="none" xmlns="http://www.w3.org/2000/svg">
<path fill-rule="evenodd" clip-rule="evenodd" d="M44.334 6.83405C44.334 7.80705 43.582 8.59005 42.648 8.59005C41.715 8.59005 40.963 7.80705 40.963 6.83405C40.963 5.86105 41.689 5.07705 42.648 5.07705C43.608 5.10405 44.334 5.88705 44.334 6.83405ZM37.384 10.374V10.807C37.384 10.807 36.581 9.72605 34.87 9.72605C32.044 9.72605 29.84 11.969 29.84 15.076C29.84 18.158 32.017 20.429 34.87 20.429C36.607 20.429 37.385 19.319 37.385 19.319V19.78C37.385 19.996 37.54 20.158 37.748 20.158H39.848V9.99605H37.748C37.54 9.99605 37.384 10.186 37.384 10.374ZM37.384 16.888C36.996 17.483 36.218 17.996 35.284 17.996C33.624 17.996 32.354 16.915 32.354 15.076C32.354 13.239 33.624 12.158 35.284 12.158C36.192 12.158 37.021 12.698 37.384 13.266V16.888ZM41.404 9.99605H43.893V20.158H41.404V9.99605ZM78.585 9.72605C76.875 9.72605 76.071 10.807 76.071 10.807V5.10405H73.5809V20.158H75.681C75.888 20.158 76.044 19.968 76.044 19.78V19.32C76.044 19.32 76.848 20.429 78.56 20.429C81.386 20.429 83.59 18.158 83.59 15.077C83.59 11.996 81.386 9.72605 78.585 9.72605ZM78.171 17.969C77.7567 17.972 77.3481 17.8724 76.9817 17.6791C76.6152 17.4857 76.3024 17.2047 76.071 16.861V13.239C76.459 12.699 77.289 12.132 78.171 12.132C79.831 12.132 81.101 13.212 81.101 15.05C81.101 16.888 79.831 17.969 78.171 17.969ZM72.285 14.131V20.185H69.795V14.428C69.795 12.753 69.277 12.078 67.877 12.078C67.125 12.078 66.3469 12.483 65.8549 13.077V20.158H63.365V9.99605H65.335C65.544 9.99605 65.699 10.186 65.699 10.374V10.807C66.425 10.023 67.3839 9.72605 68.3439 9.72605C69.4329 9.72605 70.3399 10.05 71.0659 10.699C71.9479 11.456 72.285 12.429 72.285 14.131ZM57.324 9.72605C55.612 9.72605 54.809 10.807 54.809 10.807V5.10405H52.319V20.158H54.42C54.627 20.158 54.783 19.968 54.783 19.78V19.32C54.783 19.32 55.587 20.429 57.298 20.429C60.125 20.429 62.328 18.158 62.328 15.077C62.354 11.996 60.15 9.72605 57.324 9.72605ZM56.909 17.969C55.949 17.969 55.199 17.455 54.809 16.861V13.239C55.199 12.699 56.027 12.132 56.909 12.132C58.569 12.132 59.839 13.212 59.839 15.05C59.839 16.888 58.569 17.969 56.909 17.969ZM50.168 9.72605C50.919 9.72605 51.308 9.86105 51.308 9.86105V12.267C51.308 12.267 49.234 11.537 47.938 13.077V20.185H45.448V9.99505H47.548C47.756 9.99505 47.912 10.185 47.912 10.375V10.807C48.379 10.239 49.39 9.72605 50.168 9.72605ZM24.317 19.239C24.187 18.915 24.057 18.564 23.928 18.266C23.721 17.78 23.513 17.32 23.331 16.888L23.306 16.861C21.4916 12.7449 19.5811 8.67174 17.576 4.64505L17.497 4.48205C17.29 4.07705 17.083 3.64505 16.875 3.21205C16.615 2.72605 16.357 2.21205 15.942 1.72605C15.112 0.646049 13.919 0.0500488 12.649 0.0500488C11.353 0.0500488 10.186 0.645049 9.32995 1.67205C8.93995 2.15805 8.65595 2.67205 8.39695 3.15905C8.18895 3.59005 7.98195 4.02305 7.77495 4.42905L7.69595 4.59105C5.69995 8.64505 3.75595 12.753 1.96595 16.807L1.93995 16.861C1.75895 17.293 1.55095 17.753 1.34395 18.239C1.21395 18.536 1.08395 18.861 0.954954 19.212C0.617954 20.212 0.514954 21.158 0.644954 22.131C0.928954 24.158 2.22495 25.861 4.01495 26.617C4.67668 26.9075 5.39228 27.0551 6.11495 27.05C7.27019 27.0143 8.39632 26.679 9.38295 26.077C10.445 25.455 11.456 24.563 12.597 23.267C13.737 24.563 14.775 25.455 15.812 26.077C16.7985 26.6792 17.9247 27.0145 19.08 27.05C19.806 27.05 20.532 26.915 21.18 26.617C22.996 25.86 24.266 24.131 24.551 22.131C24.758 21.185 24.655 20.239 24.318 19.239H24.317ZM12.623 20.645C11.223 18.806 10.315 17.077 10.004 15.618C9.87395 14.996 9.84795 14.456 9.92595 13.968C9.97795 13.537 10.134 13.158 10.341 12.834C10.834 12.104 11.664 11.644 12.623 11.644C13.583 11.644 14.438 12.077 14.904 12.834C15.112 13.158 15.267 13.537 15.319 13.969C15.397 14.456 15.371 15.023 15.242 15.618C14.931 17.05 14.023 18.78 12.622 20.645H12.623ZM22.968 21.915C22.787 23.32 21.88 24.537 20.609 25.077C19.987 25.347 19.313 25.429 18.639 25.347C17.9393 25.2559 17.2673 25.0162 16.668 24.644C15.735 24.104 14.801 23.266 13.712 22.024C15.423 19.834 16.461 17.834 16.849 16.05C17.0176 15.2966 17.0615 14.5207 16.979 13.753C16.8838 13.0963 16.6448 12.4687 16.279 11.915C15.475 10.699 14.127 9.99505 12.623 9.99505C11.119 9.99505 9.77095 10.726 8.96695 11.915C8.60053 12.4684 8.36146 13.0961 8.26695 13.753C8.15728 14.5197 8.20147 15.3006 8.39695 16.05C8.78595 17.834 9.84795 19.86 11.534 22.05C10.471 23.293 9.51195 24.13 8.57795 24.672C7.90395 25.077 7.25595 25.294 6.60795 25.374C5.93903 25.4513 5.26143 25.3584 4.63795 25.104C3.36595 24.564 2.45795 23.347 2.27795 21.942C2.19234 21.2305 2.27207 20.5088 2.51095 19.833C2.58895 19.563 2.71795 19.293 2.84795 18.969C3.02995 18.536 3.23695 18.077 3.44395 17.618L3.46995 17.563C5.28107 13.4763 7.18288 9.43025 9.17395 5.42805L9.25295 5.26705C9.45995 4.86105 9.66695 4.42905 9.87495 4.02305C10.082 3.59005 10.315 3.18505 10.6 2.83405C11.145 2.18605 11.871 1.83405 12.675 1.83405C13.478 1.83405 14.205 2.18605 14.749 2.83405C15.0363 3.20085 15.2799 3.59987 15.475 4.02305C15.683 4.42905 15.89 4.86105 16.098 5.26705L16.175 5.42805C18.145 9.45605 20.065 13.564 21.853 17.591V17.618C22.061 18.05 22.243 18.536 22.45 18.968C22.58 19.293 22.71 19.563 22.787 19.833C22.995 20.536 23.072 21.213 22.968 21.915Z" fill="#4A6592"/>
</svg>
