<svg width="108" height="21" viewBox="0 0 108 21" fill="none" xmlns="http://www.w3.org/2000/svg">
<path fill-rule="evenodd" clip-rule="evenodd" d="M106.613 4.29605H106.756C106.795 4.29664 106.833 4.29227 106.871 4.28305C106.899 4.27671 106.925 4.26443 106.948 4.24705C106.967 4.23135 106.981 4.21099 106.989 4.18805C106.998 4.16239 107.002 4.13529 107.002 4.10805C107.003 4.08162 106.999 4.05528 106.991 4.03005C106.983 4.00837 106.97 3.98928 106.952 3.97505C106.931 3.95941 106.907 3.94849 106.882 3.94305C106.847 3.93553 106.812 3.93218 106.776 3.93305H106.613V4.29605ZM106.613 4.43205V4.85505H106.421V3.79005H106.776C106.916 3.79005 107.021 3.81505 107.09 3.86405C107.158 3.91405 107.192 3.98805 107.192 4.08405C107.194 4.15393 107.17 4.22214 107.126 4.27605C107.075 4.33357 107.006 4.37229 106.93 4.38605C106.943 4.39402 106.956 4.40415 106.966 4.41605C106.976 4.42705 106.986 4.44105 106.995 4.45705L107.275 4.85705H107.093C107.066 4.85705 107.046 4.84705 107.033 4.82705L106.786 4.46505C106.779 4.45512 106.77 4.44692 106.759 4.44105C106.744 4.43478 106.728 4.43204 106.712 4.43305L106.613 4.43205ZM106.015 4.32505C106.014 4.42604 106.033 4.52618 106.072 4.61948C106.111 4.71278 106.168 4.79732 106.24 4.86805C106.387 5.01289 106.585 5.09402 106.791 5.09383C106.997 5.09364 107.195 5.01216 107.342 4.86705C107.452 4.75967 107.527 4.62167 107.558 4.47099C107.588 4.32031 107.573 4.16393 107.513 4.02219C107.454 3.88045 107.353 3.7599 107.224 3.67623C107.095 3.59256 106.944 3.54964 106.79 3.55305C106.638 3.5517 106.489 3.59567 106.361 3.67936C106.234 3.76306 106.135 3.8827 106.076 4.02305C106.035 4.11848 106.014 4.22132 106.015 4.32505ZM105.892 4.32505C105.891 4.16883 105.934 4.01545 106.015 3.88205C106.093 3.75121 106.205 3.64327 106.338 3.56905C106.475 3.48974 106.631 3.44833 106.79 3.44905C107.028 3.44895 107.256 3.54109 107.427 3.70605C107.51 3.78661 107.576 3.88284 107.621 3.98911C107.666 4.09538 107.689 4.20958 107.69 4.32505C107.691 4.48023 107.649 4.63265 107.568 4.76505C107.489 4.8956 107.378 5.00346 107.245 5.07805C107.107 5.15833 106.95 5.19979 106.79 5.19805C106.553 5.19939 106.325 5.10701 106.156 4.94105C106.047 4.83525 105.967 4.70295 105.924 4.55705C105.902 4.4816 105.892 4.4035 105.892 4.32505ZM104.598 5.17905C104.598 5.06705 104.505 4.95405 104.413 4.90905C104.182 4.79705 103.835 4.70705 103.141 4.70705C101.569 4.70705 100.159 5.47105 99.5579 6.73005V5.18005C99.5566 5.11365 99.5293 5.05042 99.4817 5.00403C99.4342 4.95763 99.3704 4.93178 99.3039 4.93205H96.9459C96.8797 4.93177 96.816 4.95748 96.7685 5.00367C96.721 5.04985 96.6935 5.11282 96.6919 5.17905V15.6511C96.6919 15.7861 96.8069 15.8981 96.9459 15.8981H99.4199C99.4862 15.8983 99.5499 15.8726 99.5974 15.8264C99.6449 15.7802 99.6724 15.7173 99.6739 15.6511V10.9311C99.6739 8.82005 101.177 7.78605 103.141 7.78605C103.604 7.78605 104.066 7.87605 104.274 7.96605C104.436 8.01105 104.598 7.89805 104.598 7.74105V5.17905ZM88.7629 13.3141C87.0749 13.3141 85.7579 12.1461 85.7579 10.3931C85.7579 8.64005 87.0749 7.47105 88.7629 7.47105C90.4499 7.47105 91.7679 8.64005 91.7679 10.3931C91.7679 12.1681 90.4739 13.3141 88.7629 13.3141ZM88.7629 4.66205C85.2959 4.66205 82.7069 6.97705 82.7069 10.4151C82.7069 13.8311 85.2959 16.1681 88.7629 16.1681C92.2309 16.1681 94.8199 13.8541 94.8199 10.4151C94.8429 6.99905 92.2539 4.66205 88.7629 4.66205ZM75.0099 13.3141C73.3219 13.3141 72.0049 12.1461 72.0049 10.3931C72.0049 8.64005 73.3199 7.47005 75.0089 7.47005C76.6959 7.47005 78.0139 8.63905 78.0139 10.3921C77.9909 12.1671 76.6959 13.3131 75.0089 13.3131L75.0099 13.3141ZM75.0099 4.66205C71.5419 4.66205 68.9529 6.97705 68.9529 10.4151C68.9529 13.8311 71.5429 16.1681 75.0099 16.1681C78.4769 16.1681 81.0669 13.8541 81.0669 10.4151C81.0669 6.99905 78.4769 4.66205 75.0099 4.66205ZM61.2549 13.3601C59.5669 13.3601 58.2949 12.1911 58.2949 10.4161C58.2949 8.64105 59.5669 7.47205 61.2549 7.47205C62.9189 7.47205 64.2139 8.59605 64.2139 10.4161C64.2139 12.2141 62.9199 13.3601 61.2549 13.3601ZM66.8489 0.550051H64.3749C64.3087 0.549771 64.245 0.575485 64.1975 0.621669C64.15 0.667853 64.1225 0.730823 64.1209 0.797051V6.50505C63.3579 5.44905 62.0869 4.64005 60.3309 4.64005C57.5789 4.64005 55.2439 6.70705 55.2439 10.4151C55.2439 14.1231 57.5789 16.1681 60.3759 16.1681C62.0179 16.1681 63.3119 15.4711 64.1209 14.3481V15.6281C64.1209 15.7631 64.2369 15.8761 64.3759 15.8761H66.8489C66.9152 15.8763 66.9789 15.8506 67.0264 15.8044C67.0739 15.7582 67.1014 15.6953 67.1029 15.6291V0.775051C67.1029 0.662051 66.9879 0.550051 66.8489 0.550051ZM53.6029 12.5721C53.6029 15.0671 51.7309 16.1451 48.7259 16.1451C46.6459 16.1451 44.8659 15.6061 43.8479 14.4831C43.8141 14.4375 43.7958 14.3823 43.7958 14.3256C43.7958 14.2688 43.8141 14.2136 43.8479 14.1681L45.2809 12.3701C45.3275 12.3187 45.3923 12.2877 45.4615 12.2836C45.5306 12.2795 45.5986 12.3026 45.6509 12.3481C46.4139 13.0901 47.5699 13.5611 49.0259 13.5611C49.8579 13.5611 50.5289 13.3371 50.5289 12.7301C50.5289 12.1461 49.9279 12.0101 48.0319 11.6061C46.3679 11.2691 44.2869 10.5281 44.2869 8.14605C44.2869 5.92105 46.0909 4.66205 49.0489 4.66205C50.9909 4.66205 52.3779 5.22405 53.3719 6.12305C53.4649 6.21305 53.4649 6.34805 53.3949 6.46005L52.0309 8.16805C51.9389 8.28005 51.7769 8.30305 51.6849 8.21305C51.0149 7.62905 49.9049 7.26905 48.8179 7.26905C47.8929 7.26905 47.3849 7.56105 47.3849 8.03305C47.3849 8.57305 47.9849 8.70705 49.9969 9.13405C51.9389 9.56105 53.6029 10.2801 53.6029 12.5721ZM42.1609 12.5721C42.1609 15.0671 40.2879 16.1451 37.2829 16.1451C35.2029 16.1451 33.4229 15.6061 32.4049 14.4831C32.3711 14.4375 32.3528 14.3823 32.3528 14.3256C32.3528 14.2688 32.3711 14.2136 32.4049 14.1681L33.8389 12.3701C33.8855 12.3187 33.9503 12.2877 34.0195 12.2836C34.0886 12.2795 34.1566 12.3026 34.2089 12.3481C34.9719 13.0901 36.1269 13.5611 37.5839 13.5611C38.4159 13.5611 39.0859 13.3371 39.0859 12.7301C39.0859 12.1461 38.4859 12.0101 36.5899 11.6061C34.9249 11.2691 32.8449 10.5281 32.8449 8.14605C32.8449 5.92105 34.6479 4.66205 37.6069 4.66205C39.5479 4.66205 40.9349 5.22405 41.9289 6.12305C42.0219 6.21305 42.0219 6.34805 41.9519 6.46005L40.5899 8.16805C40.4969 8.28005 40.3349 8.30305 40.2429 8.21305C39.5729 7.62905 38.4629 7.26905 37.3769 7.26905C36.4519 7.26905 35.9429 7.56105 35.9429 8.03305C35.9429 8.57305 36.5439 8.70705 38.5559 9.13405C40.4969 9.56105 42.1609 10.2801 42.1609 12.5721ZM27.3209 11.4721C27.3209 12.6851 26.3029 13.7181 24.7309 13.7181C23.6909 13.7181 23.1359 13.2691 23.1359 12.5501C23.1359 11.9431 23.6209 11.4711 24.5229 11.3361L27.3199 10.9991V11.4711L27.3209 11.4721ZM25.3549 4.68505C22.9969 4.68505 21.2169 5.44905 20.4079 6.97705C20.3619 7.08905 20.3849 7.22405 20.5009 7.29205L22.3039 8.55005C22.4189 8.64005 22.5809 8.59505 22.6499 8.48305C23.1599 7.60605 24.2689 7.31405 25.3549 7.31405C26.6949 7.31405 27.3199 7.76405 27.3199 8.41505V8.59505C27.3199 8.86505 27.1579 8.99905 26.7419 9.04505L23.6439 9.31405C21.5639 9.51605 20.0379 10.7521 20.0379 12.7521C20.0379 14.7751 21.6099 16.1681 23.8529 16.1681C25.6089 16.1681 26.7419 15.3371 27.3199 14.4601V15.6961C27.3199 15.8311 27.4359 15.9431 27.5739 15.9431H30.0479C30.1142 15.9433 30.1779 15.9176 30.2254 15.8714C30.2729 15.8252 30.3004 15.7623 30.3019 15.6961V9.15605C30.3019 6.10005 28.6379 4.68505 25.3549 4.68505ZM18.0049 0.797051V15.6511C18.0034 15.7175 17.9757 15.7806 17.928 15.8268C17.8803 15.873 17.8164 15.8986 17.7499 15.8981H15.2529C15.1867 15.8983 15.123 15.8726 15.0755 15.8264C15.028 15.7802 15.0005 15.7173 14.9989 15.6511V0.797051C14.9989 0.662051 15.1149 0.550051 15.2529 0.550051H17.7499C17.8879 0.550051 18.0039 0.662051 18.0039 0.797051H18.0049ZM6.69994 13.3371C5.01294 13.3371 3.74094 12.1671 3.74094 10.3931C3.74094 8.61805 5.01294 7.44905 6.70094 7.44905C8.38794 7.44905 9.63594 8.57305 9.63594 10.3931C9.63594 12.1901 8.38794 13.3371 6.69994 13.3371ZM12.2939 4.93205H9.82094C9.75469 4.93177 9.69098 4.95748 9.64349 5.00367C9.596 5.04985 9.56851 5.11282 9.56694 5.17905V6.46005C8.94294 5.47105 7.62494 4.66205 5.88994 4.66205C3.09394 4.66205 0.689941 6.70705 0.689941 10.3701C0.689941 14.0101 2.97794 16.0101 5.98394 16.0101C7.60194 16.0101 8.87394 15.3601 9.61294 14.3251V15.0221C9.61294 16.5951 8.82694 17.8531 6.30694 17.8531C5.03594 17.8531 4.01894 17.4491 3.11694 16.6631C3.00094 16.5731 2.81694 16.5951 2.74694 16.7071L1.63694 18.5271C1.49894 18.7521 1.52194 18.8871 1.61494 18.9771C2.76994 19.9431 4.27294 20.5501 6.44594 20.5501C11.1849 20.5501 12.5719 17.9881 12.5719 15.1571V5.15705C12.5606 5.09228 12.5262 5.0338 12.4751 4.99244C12.424 4.95107 12.3596 4.92962 12.2939 4.93205Z" fill="#4A6592"/>
</svg>
