<svg width="155" height="32" viewBox="0 0 155 32" fill="none" xmlns="http://www.w3.org/2000/svg">
<g clip-path="url(#clip0_1_49)">
<path d="M19.4564 12.4483C21.2812 14.2874 22.7737 17.2989 21.9196 19.0882C19.6357 23.873 2.5931 32.2657 1.1458 30.8126C-0.301505 29.3609 8.07041 12.2612 12.8423 9.96892C14.6263 9.11225 17.6287 10.6092 19.4637 12.4395C19.4623 12.441 19.4608 12.4439 19.4564 12.4483Z" fill="#4A6592"/>
<path d="M28.4856 10.428C28.1897 9.32717 27.4332 8.21467 26.3037 8.0831C24.2326 7.84189 20.9692 11.5142 21.2024 12.3855C21.4356 13.2567 26.0472 14.7932 27.7685 13.552C28.6561 12.9117 28.7814 11.5288 28.4899 10.428H28.4856ZM22.0769 0.254663C23.6146 0.672764 25.1697 1.73556 25.3534 3.32318C25.6915 6.23527 20.5582 10.8256 19.3397 10.4981C18.1212 10.1707 15.9743 3.68573 17.7102 1.26337C18.6051 0.014912 20.5378 -0.160515 22.0784 0.248815C22.0784 0.248815 22.0769 0.251739 22.0769 0.254663Z" fill="#4A6592"/>
<path d="M67.9345 17.4918L66.4099 17.2594C64.9568 17.0445 64.1158 16.5723 64.1158 15.7142C64.1158 14.7289 65.2104 14.1178 66.8282 14.1178C67.9724 14.1178 68.9037 14.5476 69.7957 15.0037L69.9735 15.0943C70.179 15.1996 70.4006 15.2522 70.6294 15.2522C71.1585 15.2522 71.6467 14.9642 71.9018 14.4994L72.0257 14.2742C72.2225 13.9146 72.2647 13.5009 72.1437 13.1091C72.0228 12.7188 71.756 12.403 71.3917 12.2203C70.093 11.5683 68.6836 10.982 66.8268 10.982C62.9469 10.982 60.4487 12.8606 60.4487 15.8852C60.4487 18.3675 62.2269 19.9244 65.5937 20.3849L67.1314 20.5852C68.7565 20.8133 69.5465 21.2957 69.5465 22.0603C69.5465 22.7664 69.1661 23.7034 66.6489 23.7034C65.2614 23.7034 63.852 23.3497 62.7079 22.6231C62.479 22.4784 62.2167 22.4009 61.947 22.4009C61.4442 22.4009 60.9676 22.6684 60.7023 23.0982L60.6163 23.2371C60.4035 23.5821 60.3394 24.006 60.44 24.3993C60.5405 24.7925 60.7883 25.1171 61.1381 25.313C63.132 26.4372 65.4348 26.8363 66.6475 26.8363C70.6921 26.8363 73.1946 25.0586 73.1946 21.9302C73.199 19.4303 71.4267 17.9947 67.9345 17.4918ZM114.958 22.9564C114.666 22.6289 114.247 22.4418 113.809 22.4418C113.514 22.4418 113.225 22.5266 112.973 22.686C112.149 23.2093 111.249 23.4871 110.364 23.4871C107.934 23.4871 106.171 21.5618 106.171 18.9099C106.171 16.258 107.934 14.3327 110.364 14.3327C111.297 14.3327 112.132 14.5871 112.916 15.1104C113.524 15.5154 114.395 15.4116 114.895 14.8765L115.025 14.7376C115.368 14.3722 115.529 13.8751 115.471 13.3766C115.414 12.8869 115.147 12.4498 114.741 12.1793C113.546 11.3841 112.065 10.9645 110.457 10.9645C105.793 10.9645 102.536 14.2318 102.536 18.9084C102.536 23.5865 105.793 26.8538 110.457 26.8538C112.072 26.8538 113.562 26.4255 114.766 25.6141C115.168 25.3437 115.433 24.911 115.493 24.4256C115.554 23.9373 115.401 23.4476 115.075 23.0821L114.958 22.9564ZM39.4825 5.59058C38.2684 5.59058 37.3181 6.55689 37.3181 7.78926C37.3181 9.02749 38.248 9.96018 39.4825 9.96018C40.7112 9.96018 41.6746 9.00702 41.6746 7.78926C41.6746 6.55689 40.7112 5.59058 39.4825 5.59058ZM40.1369 11.0946H38.8602C38.2349 11.0946 37.7277 11.6033 37.7277 12.2305V25.332C37.7277 25.9591 38.2349 26.4679 38.8602 26.4679H40.1369C40.7622 26.4679 41.2694 25.9591 41.2694 25.332V12.2305C41.2694 11.6033 40.7622 11.0946 40.1369 11.0946ZM82.0592 23.4184C80.6264 23.4125 78.9605 22.2869 78.9605 20.3148V14.4043H82.0694C82.6946 14.4043 83.2018 13.8956 83.2018 13.2684V12.2305C83.2018 11.6033 82.6946 11.0946 82.0694 11.0946H78.9605V7.68401C78.9605 7.05686 78.4533 6.54812 77.828 6.54812H76.4813C75.856 6.54812 75.3488 7.05686 75.3488 7.68401V20.1028C75.3488 23.6786 78.0539 26.8392 81.7997 26.8392H81.8012C82.1743 26.8392 82.527 26.693 82.7937 26.4255C83.059 26.1594 83.2062 25.8056 83.2062 25.4299V24.5543C83.2033 23.9242 82.6888 23.4213 82.0592 23.4184ZM51.1163 10.966C46.5835 10.966 44.0547 14.6031 44.0547 17.7141V25.332C44.0547 25.9591 44.5619 26.4679 45.1872 26.4679H46.4785C47.1038 26.4679 47.611 25.9591 47.611 25.332V18.2857C47.611 15.9262 49.0365 14.3634 51.1149 14.3634C53.1933 14.3634 54.6187 15.9262 54.6187 18.2857V25.332C54.6187 25.9591 55.1259 26.4679 55.7512 26.4679H57.0425C57.6678 26.4679 58.175 25.9591 58.175 25.332V17.7141C58.1779 14.6017 55.6506 10.966 51.1163 10.966ZM144.363 11.1238C143.872 11.0157 142.64 10.966 142.002 10.966C141.945 10.966 141.888 10.9674 141.833 10.9674C138.323 10.9674 135.082 13.8371 135.082 17.793C135.082 17.7959 135.08 17.8003 135.08 17.8032V25.332C135.08 25.9591 135.587 26.4679 136.213 26.4679H137.504C138.129 26.4679 138.637 25.9591 138.637 25.332V17.9231C138.637 15.7697 140.17 14.3649 142.049 14.3649C142.393 14.3707 142.761 14.4087 143.123 14.4804C143.222 14.4994 143.321 14.5096 143.422 14.5096C144.139 14.5096 144.76 14.0125 144.927 13.3138C145.019 12.9293 145.088 12.6442 145.152 12.3825C145.216 12.1209 145.172 11.8256 145.023 11.5858C144.873 11.349 144.639 11.1838 144.363 11.1238ZM153.835 14.4043C154.461 14.4043 154.968 13.8956 154.968 13.2684V12.2305C154.968 11.6033 154.461 11.0946 153.835 11.0946H150.727V7.68401C150.727 7.05686 150.219 6.54812 149.593 6.54812H148.246C147.621 6.54812 147.113 7.05686 147.113 7.68401V20.1028C147.113 23.6786 149.819 26.8392 153.564 26.8392H153.566C153.94 26.8392 154.292 26.693 154.558 26.4255C154.824 26.1594 154.971 25.8056 154.971 25.4299V24.5543C154.971 23.9227 154.456 23.4198 153.827 23.4184C152.394 23.4125 150.728 22.2869 150.728 20.3148V14.4043H153.835ZM129.186 12.1852C129.185 12.1837 129.182 12.1823 129.18 12.1808C127.985 11.3855 126.504 10.966 124.897 10.966C124.869 10.966 124.841 10.9674 124.814 10.9674C124.786 10.9674 124.758 10.966 124.731 10.966C123.123 10.966 121.641 11.3855 120.447 12.1808C120.445 12.1823 120.443 12.1837 120.441 12.1852C118.29 13.5433 116.977 15.9422 116.977 18.9113C116.977 22.0208 118.418 24.506 120.753 25.8232C121.842 26.4679 123.135 26.8524 124.528 26.8538C127.073 26.8553 128.61 25.4095 129.093 24.7779V25.3218C129.093 25.9489 129.6 26.4576 130.225 26.4576H131.517C132.142 26.4576 132.649 25.9489 132.649 25.3218V18.9099C132.651 15.9408 131.337 13.5418 129.186 12.1852ZM126.236 23.2488C125.822 23.3862 125.401 23.4651 124.983 23.4827C124.952 23.4842 124.921 23.4842 124.891 23.4856C124.865 23.4856 124.84 23.4871 124.814 23.4871C124.787 23.4871 124.763 23.4856 124.736 23.4856C124.706 23.4856 124.675 23.4842 124.645 23.4827C124.226 23.4651 123.804 23.3862 123.391 23.2488C121.721 22.6567 120.612 21.0136 120.612 18.9099C120.612 16.4276 122.158 14.5812 124.349 14.3561C124.36 14.3546 124.372 14.3546 124.384 14.3532C124.433 14.3488 124.483 14.3444 124.534 14.3415C124.561 14.34 124.591 14.3385 124.618 14.3371C124.666 14.3356 124.716 14.3342 124.764 14.3342C124.782 14.3342 124.798 14.3327 124.815 14.3327C124.833 14.3327 124.849 14.3327 124.866 14.3342C124.916 14.3342 124.964 14.3356 125.012 14.3371C125.041 14.3385 125.069 14.34 125.096 14.3415C125.146 14.3444 125.197 14.3473 125.246 14.3532C125.258 14.3546 125.27 14.3546 125.281 14.3561C127.472 14.5812 129.019 16.4261 129.019 18.9099C129.016 21.0121 127.906 22.6567 126.236 23.2488ZM96.9476 12.1852C96.9461 12.1837 96.9432 12.1823 96.9417 12.1808C95.7466 11.3855 94.2658 10.966 92.6581 10.966C92.6304 10.966 92.6027 10.9674 92.5751 10.9674C92.5474 10.9674 92.5197 10.966 92.492 10.966C90.8843 10.966 89.4021 11.3855 88.2084 12.1808C88.2069 12.1823 88.204 12.1837 88.2025 12.1852C86.0513 13.5433 84.738 15.9422 84.738 18.9113C84.738 22.0208 86.1795 24.506 88.5144 25.8232C89.6032 26.4679 90.896 26.8524 92.2894 26.8538C94.8342 26.8553 96.3719 25.4095 96.8543 24.7779V25.3218C96.8543 25.9489 97.3615 26.4576 97.9868 26.4576H99.2781C99.9034 26.4576 100.411 25.9489 100.411 25.3218V18.9099C100.412 15.9408 99.0988 13.5418 96.9476 12.1852ZM93.9976 23.2488C93.5836 23.3862 93.1624 23.4651 92.7441 23.4827C92.7135 23.4842 92.6829 23.4842 92.6523 23.4856C92.6261 23.4856 92.6013 23.4871 92.5751 23.4871C92.5488 23.4871 92.524 23.4856 92.4978 23.4856C92.4672 23.4856 92.4366 23.4842 92.406 23.4827C91.9877 23.4651 91.565 23.3862 91.1525 23.2488C89.4822 22.6567 88.3731 21.0136 88.3731 18.9099C88.3731 16.4276 89.9195 14.5812 92.1101 14.3561C92.1218 14.3546 92.1334 14.3546 92.1451 14.3532C92.1946 14.3488 92.2442 14.3444 92.2952 14.3415C92.3229 14.34 92.3521 14.3385 92.3797 14.3371C92.4278 14.3356 92.4774 14.3342 92.5255 14.3342C92.543 14.3342 92.559 14.3327 92.5765 14.3327C92.594 14.3327 92.61 14.3327 92.6275 14.3342C92.6771 14.3342 92.7252 14.3356 92.7733 14.3371C92.8024 14.3385 92.8301 14.34 92.8578 14.3415C92.9074 14.3444 92.9584 14.3473 93.0079 14.3532C93.0196 14.3546 93.0313 14.3546 93.0429 14.3561C95.2335 14.5812 96.78 16.4261 96.78 18.9099C96.777 21.0121 95.6679 22.6567 93.9976 23.2488Z" fill="#4A6592"/>
</g>
<defs>
<clipPath id="clip0_1_49">
<rect width="154" height="31" fill="white" transform="translate(0.97998 0.0500488)"/>
</clipPath>
</defs>
</svg>
