<svg width="143" height="32" viewBox="0 0 143 32" fill="none" xmlns="http://www.w3.org/2000/svg">
<g clip-path="url(#clip0_1_668)">
<path fill-rule="evenodd" clip-rule="evenodd" d="M49.2552 22.1167C49.8468 20.7923 51.0866 19.8905 52.7212 19.8905C54.3558 19.8905 55.5675 20.6513 56.0748 22.1167H49.2552ZM59.9635 23.8077C59.9635 19.7494 57.0044 16.5086 52.6931 16.5086C48.635 16.5086 45.3662 19.7775 45.3662 23.836C45.3662 27.8942 48.4099 31.1633 52.8059 31.1633C55.8504 31.1633 58.0402 29.6945 59.2723 27.5891L56.2101 25.763C55.5606 27.0095 54.3135 27.7815 52.8341 27.7815C50.805 27.7815 49.5371 26.7667 49.0861 25.2167H59.9635V23.8077ZM138.561 23.8077C138.561 21.7223 137.039 20.0313 134.954 20.0313C132.812 20.0313 131.177 21.6378 131.177 23.8077C131.177 25.9777 132.812 27.6124 134.954 27.6124C137.039 27.6124 138.561 25.8933 138.561 23.8077ZM127.401 23.836C127.401 18.848 131.065 16.5086 134.249 16.5086C136.081 16.5086 137.518 17.185 138.448 18.1712V10.3086H142.309V30.8813H138.448V29.3034C137.518 30.4025 136.024 31.1633 134.193 31.1633C131.206 31.1633 127.401 28.7959 127.401 23.836ZM124.565 14.6458C125.841 14.6458 126.875 13.6118 126.875 12.3362C126.875 11.0606 125.841 10.0266 124.565 10.0266C123.29 10.0266 122.256 11.0606 122.256 12.3362C122.256 13.6118 123.29 14.6458 124.565 14.6458ZM122.635 16.7905H126.496V30.8813H122.635V20.5388L121.234 20.5386L122.635 16.7905ZM112.351 16.7905H116.183V19.1015C116.888 17.636 118.156 16.7905 120.072 16.7905H121.622L120.222 20.5386H119.17C117.113 20.5386 116.211 21.6096 116.211 24.2305V30.8813H112.351V16.7905ZM90.6319 20.595C90.6319 14.733 95.0562 10.0266 101.143 10.0266C104.188 10.0266 106.748 11.123 108.602 12.8703C109.356 13.5812 109.993 14.4001 110.499 15.2968L107.061 17.3822C105.793 15.0429 103.848 13.8311 101.171 13.8311C97.4232 13.8311 94.5207 16.9032 94.5207 20.595C94.5207 24.3714 97.367 27.3586 101.312 27.3586C104.299 27.3586 106.412 25.6678 107.145 23.0468H100.692V19.2987H111.372V20.8768C111.372 26.4006 107.427 31.1633 101.312 31.1633C94.8872 31.1633 90.6319 26.2879 90.6319 20.595ZM85.9782 23.8077C85.9782 21.7223 84.4566 20.0313 82.3714 20.0313C80.2297 20.0313 78.5951 21.6378 78.5951 23.8077C78.5951 25.9777 80.2297 27.6124 82.3714 27.6124C84.4566 27.6124 85.9782 25.8933 85.9782 23.8077ZM74.819 23.836C74.819 18.848 78.4822 16.5086 81.6667 16.5086C83.4984 16.5086 84.9356 17.185 85.8655 18.1712V10.3086H89.7262V30.8813H85.8655V29.3034C84.9356 30.4025 83.4421 31.1633 81.6105 31.1633C78.6234 31.1633 74.819 28.7959 74.819 23.836ZM60.866 16.7905H64.6987V18.3687C65.6004 17.2131 66.9814 16.5086 68.5875 16.5086C71.9125 16.5086 73.9134 18.6504 73.9134 22.2858V30.8813H69.9964V22.7931C69.9964 20.9049 69.1228 19.8058 67.4041 19.8058C65.9385 19.8058 64.7268 20.8204 64.7268 23.1876V30.8813H60.866V16.7905ZM29.3442 27.4714L32.9233 24.653C33.9376 26.4006 35.544 27.415 37.3754 27.415C39.3765 27.415 40.4474 26.1188 40.4474 24.7094C40.4474 23.0187 38.3899 22.4834 36.192 21.8067C33.4306 20.9614 30.3587 19.8905 30.3587 15.9448C30.3587 12.6476 33.2334 10.0266 37.2065 10.0266C40.5601 10.0266 42.4762 11.2948 44.139 13.0141L40.8981 15.4659C40.0528 14.1978 38.8411 13.5212 37.2346 13.5212C35.403 13.5212 34.417 14.5077 34.417 15.8041C34.417 17.3822 36.3894 17.918 38.5873 18.6504C41.3774 19.5521 44.5334 20.7923 44.5334 24.7379C44.5334 28.0069 41.9407 31.1633 37.4037 31.1633C33.6842 31.1633 31.2044 29.5854 29.3442 27.4714Z" fill="#212F38"/>
<path fill-rule="evenodd" clip-rule="evenodd" d="M8.26947 30.8811H16.4983V22.6523H8.26947V30.8811Z" fill="#9DD6E3"/>
<path fill-rule="evenodd" clip-rule="evenodd" d="M0.0413208 22.6528H8.27011V14.4238H0.0413208V22.6528Z" fill="#9DD6E3"/>
<path fill-rule="evenodd" clip-rule="evenodd" d="M0.0415039 30.8811H8.2703V22.6523H0.0415039V30.8811Z" fill="#3F72AB"/>
<path fill-rule="evenodd" clip-rule="evenodd" d="M16.4976 22.6528H24.7264V14.4238H16.4976V22.6528Z" fill="#00A9D1"/>
<path fill-rule="evenodd" clip-rule="evenodd" d="M8.26947 14.4241H16.4983V6.19531H8.26947V14.4241Z" fill="#00A9D1"/>
<path fill-rule="evenodd" clip-rule="evenodd" d="M8.26947 22.6526H16.4983V14.4238H8.26947V22.6526Z" fill="#2191C4"/>
<path fill-rule="evenodd" clip-rule="evenodd" d="M16.4976 14.4241H24.7264V6.19531H16.4976V14.4241Z" fill="#3F72AB"/>
<path fill-rule="evenodd" clip-rule="evenodd" d="M33.226 1.22387V6.02106H32.1162V1.22387H30.406V0.26416H34.9418L34.94 1.22387H33.226Z" fill="#212F38"/>
<path fill-rule="evenodd" clip-rule="evenodd" d="M43.0305 6.02115H41.9792L40.7026 1.83268L39.4263 6.02115H38.3834L36.7744 0.237305L37.9391 0.253206L39.009 4.32746L40.2105 0.26426H41.3201L42.5216 4.32746L43.5729 0.26426H44.6825L43.0305 6.02115Z" fill="#212F38"/>
<path fill-rule="evenodd" clip-rule="evenodd" d="M46.8707 6.02106H47.9803V0.26416H46.8707V6.02106Z" fill="#212F38"/>
<path fill-rule="evenodd" clip-rule="evenodd" d="M50.5508 6.02106V0.26416H51.6606V5.04486H53.5794L53.5891 6.02106H50.5508Z" fill="#212F38"/>
<path fill-rule="evenodd" clip-rule="evenodd" d="M55.8918 6.02106H57.0015V0.26416H55.8918V6.02106Z" fill="#212F38"/>
<path fill-rule="evenodd" clip-rule="evenodd" d="M62.0498 1.07383C61.0652 1.07383 60.473 1.88306 60.473 3.14295C60.473 4.40285 61.0652 5.21188 62.0498 5.21188C63.0426 5.21188 63.6351 4.40285 63.6351 3.14295C63.6351 1.88306 63.0345 1.07383 62.0498 1.07383ZM62.0416 6.1299C60.4061 6.1299 59.3469 4.92818 59.3469 3.1509C59.3469 1.36548 60.4145 0.156006 62.0581 0.156006C63.7103 0.156006 64.7528 1.35695 64.7528 3.13442C64.7528 4.91131 63.6936 6.1299 62.0416 6.1299Z" fill="#212F38"/>
</g>
<defs>
<clipPath id="clip0_1_668">
<rect width="142.52" height="32" fill="white"/>
</clipPath>
</defs>
</svg>
