<svg width="92" height="28" viewBox="0 0 92 28" fill="none" xmlns="http://www.w3.org/2000/svg">
<path fill-rule="evenodd" clip-rule="evenodd" d="M31.812 17.758L33.426 15.851C34.543 16.761 35.714 17.338 37.133 17.338C38.251 17.338 38.925 16.9 38.925 16.183V16.148C38.925 15.466 38.499 15.116 36.424 14.592C33.922 13.962 32.308 13.28 32.308 10.848V10.814C32.308 8.59205 34.118 7.12305 36.654 7.12305C38.464 7.12305 40.007 7.68305 41.266 8.68005L39.847 10.709C38.747 9.95705 37.665 9.50205 36.619 9.50205C35.572 9.50205 35.022 9.97405 35.022 10.569V10.604C35.022 11.408 35.554 11.671 37.701 12.213C40.22 12.86 41.639 13.752 41.639 15.886V15.921C41.639 18.352 39.759 19.717 37.08 19.717C35.2 19.717 33.302 19.07 31.812 17.758ZM64.479 16.818V12.286H63.292V10.15H64.479V7.71005H66.9491V10.15H69.429V12.286H66.9491V16.473C66.9491 17.243 67.443 17.421 68.049 17.421C68.547 17.421 69.0021 17.26 69.3941 17.05V19.09C68.8241 19.423 68.165 19.633 67.257 19.633C65.601 19.633 64.479 18.986 64.479 16.818ZM70.4881 10.35H72.925V19.606H70.4881V10.35ZM77.4361 10.14L79.84 10.137H81.1301L83.647 16.457L85.941 10.157L88.4771 10.16L84.5471 20.04C84.2571 20.767 83.442 22.185 81.736 22.185C80.771 22.185 79.817 21.947 79.133 21.55L80.025 19.715C80.376 19.922 80.939 20.118 81.289 20.118C81.746 20.118 82.162 19.834 82.411 19.268L79.437 12.206H77.4601V19.366H74.923V12.204H73.787V10.122H74.9771V9.53105C74.9771 8.50305 75.2901 7.75505 75.7951 7.26805C76.3001 6.78005 76.942 6.53605 77.915 6.53605C78.781 6.53605 79.3581 6.64105 79.8631 6.79805V8.89805C79.4648 8.74943 79.0432 8.6729 78.618 8.67205C77.988 8.67205 77.438 8.98605 77.438 9.68205V10.14H77.4361ZM73.245 7.72405C73.245 8.54305 72.56 9.20605 71.716 9.20605C70.872 9.20605 70.188 8.54305 70.188 7.72405C70.188 6.90605 70.872 6.24305 71.716 6.24305C72.56 6.24305 73.245 6.90605 73.245 7.72405ZM90.293 10.057C91.14 10.057 91.8 10.717 91.8 11.514C91.8 12.32 91.132 12.988 90.284 12.988C89.436 12.988 88.777 12.328 88.777 11.53C88.777 10.725 89.445 10.057 90.293 10.057ZM91.611 11.521V11.513C91.611 10.796 91.039 10.217 90.279 10.217C89.514 10.217 88.938 10.804 88.938 11.521V11.529C88.938 12.245 89.5101 12.824 90.2701 12.824C91.0341 12.824 91.611 12.238 91.611 11.521ZM89.6301 10.806H90.344C90.561 10.806 90.728 10.866 90.841 10.976C90.8854 11.0206 90.9202 11.0737 90.9433 11.1322C90.9663 11.1906 90.9771 11.2532 90.9751 11.316V11.324C90.9751 11.574 90.8321 11.733 90.6281 11.806L91.0201 12.364H90.607L90.264 11.862H89.984V12.364H89.6301V10.806ZM90.33 11.556C90.51 11.556 90.607 11.462 90.607 11.333V11.324C90.607 11.174 90.4981 11.098 90.3221 11.098H89.9761V11.555H90.331L90.33 11.556ZM58.208 10.057C61.096 10.057 63.236 12.191 63.236 14.864V14.899C63.236 17.571 61.079 19.741 58.174 19.741C55.286 19.741 53.099 17.606 53.099 14.934V14.899C53.099 12.226 55.302 10.057 58.208 10.057ZM58.1581 17.641C59.6281 17.641 60.8181 16.403 60.8181 14.876C60.8181 13.349 59.6281 12.111 58.1581 12.111C56.6881 12.111 55.497 13.349 55.497 14.876C55.497 16.403 56.688 17.641 58.157 17.641H58.1581ZM48.211 10.057C50.347 10.057 52.5 11.795 52.5 14.886V14.92C52.5 18.011 50.254 19.704 48.022 19.704C46.598 19.704 45.719 19.064 45.087 18.322V22.248H42.605V10.23H45.039V11.467C45.689 10.604 46.645 10.057 48.211 10.057ZM47.517 17.583C48.905 17.583 50.031 16.358 50.031 14.847C50.031 13.336 48.905 12.111 47.517 12.111C46.129 12.111 45.003 13.336 45.003 14.847C45.003 16.358 46.129 17.583 47.517 17.583ZM14.595 27.05C6.97605 27.05 0.800049 21.006 0.800049 13.55C0.800049 6.09405 6.97605 0.0500488 14.595 0.0500488C22.214 0.0500488 28.39 6.09405 28.39 13.55C28.39 21.006 22.214 27.05 14.595 27.05ZM24.62 10.856C24.609 10.766 24.604 10.676 24.583 10.588C24.498 10.218 24.275 9.95205 23.942 9.76305C23.0061 9.23619 22.0216 8.80084 21.002 8.46305C18.497 7.62005 15.908 7.24505 13.268 7.17105C12.196 7.14105 11.125 7.17105 10.056 7.26705C9.05005 7.35705 8.05105 7.49305 7.06605 7.71505C6.66805 7.80505 6.27005 7.90205 5.88305 8.02705C5.63079 8.107 5.41137 8.26679 5.25786 8.48235C5.10436 8.6979 5.02511 8.95752 5.03205 9.22205C5.04805 9.76905 5.41705 10.237 5.95305 10.389C6.19805 10.459 6.44005 10.451 6.68605 10.387C7.08605 10.283 7.48605 10.175 7.89205 10.09C8.99005 9.86005 10.103 9.74005 11.225 9.68305C12.2026 9.6345 13.182 9.63917 14.159 9.69705C15.099 9.75205 16.034 9.85705 16.962 10.017C18.296 10.246 19.6 10.577 20.859 11.067C21.492 11.315 22.1 11.612 22.694 11.939C23.57 12.422 24.616 11.827 24.62 10.856ZM12.145 13.938C13.41 13.943 14.6 14.05 15.779 14.27C17.311 14.555 18.787 15.007 20.179 15.704C20.483 15.856 20.776 16.028 21.073 16.192C21.6 16.484 22.233 16.332 22.538 15.839C22.805 15.409 22.738 14.734 22.179 14.399C22.126 14.367 22.074 14.335 22.02 14.304C20.9494 13.6823 19.8122 13.1829 18.63 12.815C16.3 12.0818 13.8608 11.757 11.42 11.855C10.2796 11.8928 9.1448 12.032 8.02905 12.271C7.57505 12.37 7.12405 12.485 6.67905 12.619C6.47136 12.682 6.28902 12.8092 6.15835 12.9825C6.02769 13.1558 5.95544 13.3661 5.95205 13.583C5.93705 14.009 6.20405 14.413 6.61305 14.576C6.86505 14.676 7.12305 14.671 7.37905 14.596C8.95605 14.136 10.569 13.944 12.145 13.938ZM12.455 16.16C11.842 16.194 11.228 16.214 10.617 16.264C9.52205 16.355 8.44005 16.534 7.36805 16.77C7.28405 16.789 7.19805 16.809 7.11805 16.84C6.93627 16.9104 6.78539 17.043 6.69234 17.2143C6.59929 17.3855 6.57013 17.5843 6.61005 17.775C6.64699 17.9642 6.7495 18.1342 6.89951 18.2551C7.04952 18.376 7.23741 18.4401 7.43005 18.436C7.56505 18.435 7.70005 18.409 7.83305 18.38C9.14094 18.0908 10.4717 17.9172 11.81 17.861C12.847 17.821 13.88 17.875 14.906 18.029C16.58 18.281 18.155 18.806 19.614 19.655C19.688 19.698 19.762 19.745 19.841 19.779C20.0295 19.8615 20.2414 19.8734 20.4379 19.8124C20.6344 19.7514 20.8024 19.6217 20.911 19.447C21.0196 19.2708 21.058 19.0602 21.0186 18.857C20.9791 18.6538 20.8647 18.4728 20.698 18.35C20.628 18.3 20.553 18.256 20.478 18.213C19.618 17.709 18.711 17.303 17.762 16.989C16.041 16.419 14.267 16.179 12.455 16.16Z" fill="#4A6592"/>
</svg>
