<svg width="97" height="37" viewBox="0 0 97 37" fill="none" xmlns="http://www.w3.org/2000/svg">
<path d="M13.0635 30.906C17.6374 30.906 21.174 27.3686 21.174 22.1341V1.76147H26.1246V34.7729H21.2212V31.7073C19.005 34.0179 15.9403 35.3383 12.4972 35.3383C5.42326 35.3383 0 30.1982 0 22.4203V1.76689H4.95063V22.1341C4.95063 27.463 8.44004 30.906 13.0619 30.906" fill="#4A6592"/>
<path d="M29.8044 1.76245H34.5671V13.7878C35.6778 12.6501 37.0055 11.7466 38.4715 11.1309C39.9375 10.5152 41.5122 10.1998 43.1022 10.2033C50.1763 10.2033 55.7403 15.8153 55.7403 22.7949C55.7403 29.7273 50.1763 35.3386 43.1022 35.3386C41.5045 35.3429 39.9221 35.0281 38.4476 34.4127C36.9732 33.7973 35.6365 32.8936 34.516 31.7547V34.7715H29.7975L29.8044 1.76245ZM42.7727 31.1421C47.3002 31.1421 51.0256 27.416 51.0256 22.7949C51.0256 18.1258 47.3002 14.4477 42.7727 14.4477C38.1981 14.4477 34.4727 18.1258 34.4727 22.7949C34.4727 27.416 38.1509 31.1421 42.7727 31.1421Z" fill="#4A6592"/>
<path d="M69.9833 10.2505C76.915 10.2505 82.0087 15.5794 82.0087 22.7477V24.3041H62.4406C63.1012 28.2182 66.3547 31.1422 70.408 31.1422C73.1927 31.1422 75.5489 30.0097 77.3404 27.6047L80.7834 30.1513C78.3777 33.3583 74.794 35.2914 70.408 35.2914C63.1932 35.2914 57.6284 29.9153 57.6284 22.7477C57.6284 15.9569 62.9565 10.2505 69.9833 10.2505ZM62.5326 20.5316H77.1988C76.3974 16.8527 73.4264 14.4005 69.8897 14.4005C66.3531 14.4005 63.3819 16.8527 62.5326 20.5316Z" fill="#4A6592"/>
<path d="M94.7885 14.9667C91.6755 14.9667 89.4121 17.3716 89.4121 21.097V34.7731H84.6487V10.7223H89.3673V13.6958C90.5462 11.7619 92.48 10.5359 95.1206 10.5359H96.7705V14.969L94.7885 14.9667Z" fill="#4A6592"/>
</svg>
