<svg width="90" height="41" viewBox="0 0 90 41" fill="none" xmlns="http://www.w3.org/2000/svg">
<g clip-path="url(#clip0_1_43)">
<path fill-rule="evenodd" clip-rule="evenodd" d="M63.6471 17.1383C63.9151 16.7233 64.2971 16.5073 64.7291 16.5243C65.0111 16.5273 65.2621 16.6173 70.8541 18.9103C70.8571 18.9103 72.4881 19.5703 72.4881 19.5703C73.0781 19.7903 73.4371 20.4003 73.3991 21.0903C73.3621 21.7633 72.9741 22.2903 72.3971 22.4363C72.3871 22.4413 70.0751 23.1743 70.0751 23.1743C64.8711 24.8373 64.6991 24.8843 64.4231 24.8703C63.9911 24.8543 63.6131 24.6003 63.3881 24.1753C63.2231 23.8673 63.1111 23.3513 63.0421 22.7333C62.8471 20.8583 63.0841 18.0353 63.6471 17.1383ZM76.1571 34.2183C76.0071 34.6223 75.6561 34.8933 75.1731 34.9803C73.7811 35.2163 69.4251 33.6233 68.5161 32.5503C68.3331 32.3273 68.2221 32.0873 68.1991 31.8453C68.1801 31.6753 68.2041 31.5053 68.2611 31.3453C68.3571 31.0753 68.5211 30.8653 72.4381 26.2903C72.4411 26.2903 73.5821 24.9443 73.5821 24.9443C73.9731 24.4613 74.6691 24.3093 75.3151 24.5563C75.9421 24.7963 76.3251 25.3313 76.2871 25.9203L76.2731 28.3453C76.2581 33.7783 76.2481 33.9573 76.1571 34.2183ZM84.9941 32.3273C84.5391 32.5083 84.1011 32.4653 83.7571 32.1973C83.5351 32.0243 83.2991 31.6713 80.2121 26.6883L79.2941 25.2023C78.9421 24.6713 79.0081 23.9673 79.4491 23.4343C79.8731 22.9143 80.5031 22.7173 81.0551 22.9303C81.0851 22.9443 83.3651 23.6933 83.3651 23.6933C88.5661 25.3903 88.7341 25.4543 88.9551 25.6193C89.2901 25.8863 89.4441 26.3043 89.3731 26.7893C89.1721 28.1833 86.3081 31.8063 84.9941 32.3273ZM82.3061 19.4993C81.3581 19.7223 80.8371 19.8493 80.5461 19.9593C80.5567 19.943 80.5667 19.9263 80.5761 19.9093C79.9861 20.0723 79.3411 19.7893 78.9601 19.2093C78.5901 18.6503 78.5971 17.9973 78.9741 17.5423C78.9911 17.5233 80.4201 15.5883 80.4201 15.5883C83.5851 11.2863 83.7521 11.0633 83.9801 10.9153C84.3501 10.6693 84.7931 10.6553 85.2371 10.8673C86.4901 11.4763 89.0321 15.2273 89.1841 16.6703C89.1871 16.6873 89.1841 16.7043 89.1841 16.7203C89.2151 17.2083 89.0351 17.6093 88.6771 17.8483C88.4441 18.0003 88.2171 18.0763 82.3061 19.4993ZM76.3731 14.6483C76.4701 16.6333 75.6131 16.8973 75.3331 16.9823C75.0511 17.0713 74.1891 17.3353 73.1331 15.6333C73.1331 15.6333 65.9891 4.46028 65.8211 4.11728C65.7171 3.72828 65.8441 3.29028 66.1881 2.93428C67.2561 1.83928 73.0231 0.234284 74.5311 0.604284C75.0221 0.727284 75.3651 1.03828 75.4841 1.47428C75.5671 1.95428 76.2711 12.3203 76.3731 14.6483ZM3.19314 39.2193C2.99242 39.0423 2.83909 38.8179 2.74706 38.5667C2.65503 38.3154 2.62721 38.0451 2.66614 37.7803C2.76614 36.9043 3.39214 36.3363 4.38614 36.2153C4.46014 36.2153 5.42814 36.2373 5.42814 36.2373C5.89214 36.2563 6.28914 36.1163 6.57514 35.8483C6.86614 35.5763 7.02914 35.1693 7.04114 34.6863C7.04114 34.6733 6.98514 34.3333 6.98514 34.3333C6.98514 34.2603 6.81614 33.8133 6.81614 33.8133C6.80214 33.7783 0.596136 21.2253 0.596136 21.2253C0.0961364 19.7813 0.513137 18.6613 1.76714 18.1873C2.72914 17.8073 3.67314 18.2673 3.99614 18.9073C3.99914 18.9083 9.10114 28.4873 9.10114 28.4873L11.6061 20.0323C12.2751 17.7593 13.3361 17.7363 14.1871 17.9683C14.7281 18.1113 15.1111 18.3883 15.3411 18.7993C15.6241 19.3093 15.6431 19.9963 15.3961 20.7873L10.6221 35.6943C9.66414 38.7243 8.66814 39.4373 7.06214 39.7523C5.34814 40.0993 3.93814 39.9053 3.19314 39.2193ZM31.7311 23.9343C31.9181 25.8603 31.9531 27.2403 31.5151 27.7243C31.3011 27.9543 30.9291 28.0483 30.1941 28.0483H22.2291L22.1371 28.1103C21.7931 28.3343 21.8411 28.8843 21.9471 29.4393C21.9371 29.3713 22.0941 29.9863 22.0941 29.9863C22.4441 30.9173 23.2191 31.5963 24.2101 31.8463C25.5101 32.1743 26.9791 31.7333 28.2461 30.6363C29.1241 29.8543 29.5211 29.7613 29.9921 29.8543C30.8151 29.9643 31.3741 30.6893 31.3741 31.6093C31.3741 32.8593 29.7441 34.8393 26.1171 35.3453C23.5751 35.6873 21.4841 35.1353 20.0711 33.7473C18.1961 31.9123 17.4831 28.6673 18.0021 24.3603C18.4251 20.7573 20.2661 18.5793 23.3341 18.0503C25.7811 17.6153 27.8481 17.9663 29.3091 19.0683C30.6801 20.0983 31.5171 21.7803 31.7311 23.9343ZM27.6471 25.0843C27.7371 25.0843 27.8201 24.9123 27.6941 24.0343C27.4291 22.0213 25.8001 20.8413 23.4641 21.4093C22.7169 21.5732 22.0485 21.9883 21.5701 22.5853C21.4841 22.7193 21.3951 22.8523 21.3101 22.9833C21.1006 23.3193 20.9511 23.6891 20.8681 24.0763C20.7341 24.7353 20.8221 24.9543 21.0011 25.0843H27.6471ZM38.9521 12.5423C39.4461 12.7423 39.8101 13.1223 39.9211 13.5603C39.9211 13.5773 40.0411 14.4913 40.0411 14.4913V33.4043C40.0411 34.2573 39.6331 34.9453 38.9411 35.2443C38.6731 35.3722 38.3803 35.4398 38.0833 35.4424C37.7863 35.445 37.4924 35.3825 37.2221 35.2593C36.9909 35.1591 36.7844 35.0096 36.6168 34.8213C36.4493 34.6331 36.3248 34.4106 36.2521 34.1693C36.2401 34.1393 36.1361 33.4643 36.1361 33.4643V14.5873C36.1361 13.6173 36.3861 13.0783 36.9861 12.7263C37.6101 12.3563 38.3211 12.2873 38.9521 12.5423ZM54.1761 17.8563C58.2211 18.6383 59.7381 21.7683 59.2321 28.3183C58.9891 31.5963 57.9421 33.5483 55.8221 34.6483C54.1371 35.5113 52.0451 35.5973 50.4821 34.8633C50.4821 34.8633 50.2971 34.7733 50.2941 34.7733L50.0911 34.6553L49.9161 34.5403C49.8531 34.4743 49.7061 34.3783 49.7061 34.3783L49.1231 33.9933L48.9311 34.6033L48.9111 34.6773L48.8961 34.8293L48.9311 35.3453V38.5503L48.8131 39.3443C48.6801 39.7983 48.3231 40.1713 47.8391 40.3823C47.5477 40.5035 47.2333 40.5597 46.918 40.5469C46.6026 40.5341 46.2938 40.4527 46.0131 40.3083C45.3131 39.9753 44.9921 39.3443 44.9921 38.3293V19.8033C44.9921 18.6203 45.2781 18.2243 45.7771 17.9433C46.7971 17.3653 47.9271 17.6603 48.3431 18.3033L48.4531 18.4533L48.4651 18.4833L48.4971 18.5823L48.5931 18.7423L48.7051 19.1853L49.1031 19.0073L49.2331 18.9423C49.2951 18.9053 49.4571 18.7743 49.4571 18.7743C50.9071 17.7983 52.4131 17.4983 54.1761 17.8563ZM53.9811 31.7163C56.5161 31.7163 57.0551 29.6693 57.0811 26.5903C57.1191 23.9603 56.7091 22.3853 55.7791 21.6403C55.1591 21.1443 54.3341 21.0233 53.2541 21.2723C51.6441 21.6043 51.0141 22.8003 50.8441 25.8303C50.8441 25.8603 50.8141 26.6183 50.8141 26.6183C50.8141 26.6183 50.8441 27.6393 50.8491 27.6443C50.9321 29.3953 51.3511 31.7163 53.9811 31.7163ZM63.6861 33.2233C63.6861 33.8503 63.1811 34.3183 62.5811 34.3183C62.2921 34.3183 62.0148 34.2034 61.8104 33.999C61.606 33.7946 61.4911 33.5174 61.4911 33.2283C61.4911 32.9392 61.606 32.662 61.8104 32.4575C62.0148 32.2531 62.2921 32.1383 62.5811 32.1383C63.1811 32.1383 63.6861 32.6083 63.6861 33.2233ZM62.5811 34.1593C62.704 34.1604 62.8259 34.1368 62.9396 34.0901C63.0532 34.0434 63.1564 33.9743 63.2429 33.8871C63.3295 33.7999 63.3978 33.6962 63.4436 33.5822C63.4895 33.4682 63.5121 33.3462 63.5101 33.2233C63.5111 33.101 63.4876 32.9798 63.4412 32.8667C63.3948 32.7536 63.3262 32.651 63.2397 32.5646C63.1531 32.4783 63.0501 32.4101 62.9369 32.3641C62.8237 32.318 62.7024 32.295 62.5801 32.2963C62.4571 32.2953 62.3351 32.319 62.2213 32.3659C62.1075 32.4128 62.0042 32.482 61.9176 32.5694C61.8309 32.6568 61.7626 32.7606 61.7167 32.8748C61.6708 32.989 61.6481 33.1112 61.6501 33.2343C61.6501 33.7563 62.0651 34.1593 62.5801 34.1593H62.5811ZM62.1701 32.6053H62.6361C62.9401 32.6053 63.0831 32.7153 63.0831 32.9673C63.0831 33.1943 62.9371 33.2893 62.7471 33.3093L63.1141 33.8673H62.9221L62.5751 33.3243H62.3481V33.8673H62.1701V32.6053ZM62.3481 33.1653H62.5651C62.7421 33.1653 62.9081 33.1573 62.9081 32.9593C62.9081 32.7823 62.7561 32.7633 62.6201 32.7633H62.3481V33.1653Z" fill="#4A6592"/>
</g>
<defs>
<clipPath id="clip0_1_43">
<rect width="89" height="40" fill="white" transform="translate(0.390015 0.550049)"/>
</clipPath>
</defs>
</svg>
